Coordinates
version=1
nRows=9
nColumns=36
inDegrees=yes

Units are S.I. units (second, meters, Newtons, ...)
If the header above contains a line with 'inDegrees', this indicates whether rotational values are in degrees (yes) or radians (no).

endheader
time	pelvis_tilt	pelvis_list	pelvis_rotation	pelvis_tx	pelvis_ty	pelvis_tz	hip_flexion_r	hip_adduction_r	hip_rotation_r	knee_angle_r	knee_angle_r_beta	ankle_angle_r	subtalar_angle_r	mtp_angle_r	hip_flexion_l	hip_adduction_l	hip_rotation_l	knee_angle_l	knee_angle_l_beta	ankle_angle_l	subtalar_angle_l	mtp_angle_l	lumbar_extension	lumbar_bending	lumbar_rotation	arm_flex_r	arm_add_r	arm_rot_r	elbow_flex_r	pro_sup_r	arm_flex_l	arm_add_l	arm_rot_l	elbow_flex_l	pro_sup_l
      0.37000000	      2.23293449	     -2.65466342	     -1.17372245	      0.31138839	      1.05562763	     -0.14941433	     -4.57880248	      6.97758966	      2.29999007	      6.68460032	      0.11666828	     12.73792750	      6.90602096	     -5.97959680	     25.36218533	     -2.99276968	     -6.12548382	     59.45311740	      1.03765265	      6.74291451	     -9.47993655	     -5.97959680	    -10.23077614	      0.46052962	     -6.53727431	     -8.75821199	     -6.26674634	     -8.80345387	     43.93615376	    102.98153452	    -18.93052951	    -10.40425360	     -2.93994381	     53.13038414	     96.16323198
      0.38000000	      2.20316944	     -2.62412069	     -1.41064249	      0.32151840	      1.05458416	     -0.14861765	     -5.21692195	      7.04126704	      3.08854777	      6.66597009	      0.11634313	     13.10111220	      5.91076053	     -6.07174012	     25.83421817	     -2.90236170	     -6.02192148	     56.95377101	      0.99403083	      7.11645291	     -9.07335945	     -6.07174012	    -10.40987717	      0.13087059	     -6.71892895	     -8.55213505	     -6.49452931	     -8.14942144	     44.02313350	    102.72519867	    -19.56802448	     -9.88442876	     -4.40537082	     52.13784674	     96.36496637
      0.39000000	      2.09138571	     -2.55707478	     -1.55770075	      0.33172500	      1.05325781	     -0.14799697	     -5.70173554	      7.03084866	      3.38843237	      6.76510220	      0.11807331	     13.66887085	      5.56019224	     -6.08752904	     26.33014638	     -2.71230281	     -5.76521526	     54.25887901	      0.94699609	      7.23347934	     -8.85007758	     -6.08752904	    -10.49819680	     -0.19969760	     -6.78111559	     -8.58659769	     -6.61424271	     -8.05557672	     44.36798423	    102.71366258	    -20.08662489	     -9.76154531	     -4.87893540	     51.16649220	     96.30515117
      0.40000000	      2.03644494	     -2.52767656	     -1.67612234	      0.34195978	      1.05189608	     -0.14742984	     -6.26274313	      7.07214197	      3.83913023	      6.85478554	      0.11963858	     14.18878880	      5.08067228	     -6.10629875	     26.68039978	     -2.55900122	     -5.44549625	     51.37261817	      0.89662133	      7.13743339	     -8.69220845	     -6.10629875	    -10.64746898	     -0.50641893	     -6.85405342	     -8.63216179	     -6.71918395	     -7.90134220	     44.71782463	    102.70826194	    -20.54394317	     -9.54001476	     -5.56420451	     50.23624526	     96.25967815
      0.41000000	      1.87170320	     -2.53349407	     -1.71755950	      0.35228810	      1.05022435	     -0.14695093	     -6.69655365	      7.15239286	      4.20619365	      6.97039970	      0.12165643	     14.58264685	      4.71275837	     -6.11617439	     27.09981621	     -2.41115509	     -4.95368055	     48.37716992	      0.84434090	      6.98667405	     -8.41260334	     -6.11617439	    -10.67813147	     -0.77962627	     -7.01083058	     -8.72368705	     -6.83257170	     -7.81608141	     45.07869272	    102.72228709	    -21.10452998	     -9.44413185	     -6.04185004	     49.55235903	     96.21164879
      0.42000000	      1.98964134	     -2.47066212	     -1.82355266	      0.36280023	      1.04893944	     -0.14639986	     -7.51309983	      7.14791335	      4.84845533	      6.98478119	      0.12190743	     15.12778302	      3.96363772	     -6.14125752	     27.03973173	     -2.26519527	     -4.70437877	     45.08193658	      0.78682823	      6.23139987	     -8.56429092	     -6.14125752	    -11.03094083	     -1.15378930	     -7.12292240	     -8.77622417	     -6.97591589	     -7.51474511	     45.40522438	    102.73310482	    -21.52769848	     -9.17141998	     -7.18669436	     48.64711147	     96.18010359
      0.43000000	      1.95984784	     -2.42308492	     -1.83908185	      0.37336608	      1.04732537	     -0.14599903	     -8.16950770	      7.16747411	      5.42231536	      6.99250421	      0.12204222	     15.48361444	      3.29101869	     -6.17408484	     27.09144793	     -2.09163741	     -4.29849327	     41.66756947	      0.72723628	      5.26342828	     -8.70502435	     -6.17408484	    -11.23013857	     -1.51120692	     -7.41550401	     -8.81650164	     -7.16119889	     -7.16745984	     45.67717046	    102.73760334	    -22.08603762	     -8.92972609	     -8.25420420	     48.08788119	     96.23430478
      0.44000000	      1.83168760	     -2.40258623	     -1.81598405	      0.38423962	      1.04549135	     -0.14550145	     -8.69661839	      7.20762981	      5.71010767	      7.07802963	      0.12353492	     15.96128700	      2.85158976	     -6.18991389	     27.19068686	     -1.99695613	     -3.90714844	     38.20605091	      0.66682138	      4.37142949	     -8.26317398	     -6.18991389	    -11.24597516	     -1.86028249	     -7.63706783	     -9.01917017	     -7.24300920	     -6.95944339	     46.02131528	    102.75933120	    -22.71106923	     -8.87744157	     -8.87642253	     47.50991242	     96.20879199
      0.45000000	      1.83833922	     -2.37111631	     -1.80672030	      0.39513240	      1.04383851	     -0.14494936	     -9.42667037	      7.23420305	      6.23340327	      7.06425630	      0.12329453	     16.31257605	      2.37197702	     -6.23459564	     27.00468527	     -1.86433270	     -3.43805399	     34.46991028	      0.60161343	      2.59065705	     -8.60717956	     -6.23459564	    -11.46286558	     -2.31605577	     -7.99283884	     -9.10352689	     -7.35134660	     -6.44608967	     46.25083831	    102.75832563	    -23.32307098	     -8.64173756	    -10.15477371	     47.09714318	     96.25823267
